<svg width="40" height="40" viewBox="0 0 40 40" fill="none" xmlns="http://www.w3.org/2000/svg">
<rect width="40" height="40" rx="20" fill="white"/>
<path fill-rule="evenodd" clip-rule="evenodd" d="M20 11.2C21.3255 11.2 22.4 11.4627 22.4 11.7867V28.2133C22.4 28.5374 21.3255 28.8 20 28.8C18.6745 28.8 17.6 28.5374 17.6 28.2133V11.7867C17.6 11.4627 18.6745 11.2 20 11.2Z" fill="#12317F"/>
<path fill-rule="evenodd" clip-rule="evenodd" d="M11.2 20C11.2 18.6745 11.4627 17.6 11.7867 17.6H28.2133C28.5374 17.6 28.8 18.6745 28.8 20C28.8 21.3255 28.5374 22.4 28.2133 22.4H11.7867C11.4627 22.4 11.2 21.3255 11.2 20Z" fill="#12317F"/>
</svg>
