<svg width="243" height="39" viewBox="0 0 243 39" fill="none" xmlns="http://www.w3.org/2000/svg">
<path d="M63.3252 22.3763C61.8069 24.3256 60.45 25.1846 57.9625 25.1846C54.5058 25.1846 51.5771 22.5746 51.5771 19.0394C51.5771 15.6034 54.3765 12.9602 57.9948 12.9602C60.1593 12.9602 61.8392 14.0505 63.0345 15.7355L66.8143 11.8369C64.6175 8.66519 61.3223 7.54187 57.5748 7.54187C50.9198 7.54187 45.6651 12.4977 45.6651 19.2046C45.6651 25.9445 50.9521 30.7352 57.5748 30.7352C61.5484 30.7352 64.7467 29.1823 67.1696 26.0767L63.3252 22.3763Z" fill="#13AB7B"/>
<path d="M70.029 30.2417H75.6031L75.7829 17.3235L79.8106 24.1371H82.9033L86.931 17.3285L87.1108 30.2417H92.6916L92.332 8.20476H86.9119L81.3438 17.0998L75.7829 8.20476H70.3887L70.029 30.2417Z" fill="#13AB7B"/>
<path d="M95.9759 22.5357H101.306H106.637V17.988H101.306H95.9759V22.5357Z" fill="#13AB7B"/>
<path d="M116.02 21.187H117.377C118.96 21.187 120.289 22.8255 121.032 24.3783L124.004 30.2417H130.529L126.394 21.9799C125.393 20.0967 124.294 18.9404 122.356 18.3126C123.907 17.6518 124.906 16.6937 125.94 14.5792L129.3 8.20476H123L120.319 13.4229C119.544 15.1078 118.637 15.8347 116.989 15.8347H116.02V8.20476H110.302V30.2417H116.02V21.187Z" fill="#13AB7B"/>
<path d="M136.336 14.1196C136.336 23.0157 135.389 25.451 132.169 25.451V30.2388C132.169 30.2388 132.815 30.2329 133.17 30.2329C137.855 30.2329 141.085 26.8456 141.085 18.8111H143.637V30.2417H149.097V14.1196H136.336Z" fill="#13AB7B"/>
<path d="M168.441 30.2417V14.1196H163.724L157.941 22.3521V14.1196H152.74V30.2417H157.134L163.24 22.0083V30.2417H168.441Z" fill="#13AB7B"/>
<path d="M182.3 14.1196V19.7809H177.551V14.1196H172.091V30.2417H177.551V24.3286H182.3V30.2417H187.759V14.1196H182.3Z" fill="#13AB7B"/>
<path d="M207.111 30.2417V14.1196H202.394L196.611 22.3521V14.1196H191.41V30.2417H195.804L201.909 21.9723V30.2417H207.111Z" fill="#13AB7B"/>
<path d="M216.123 24.1488H217.093C218.256 24.1488 218.963 25.2712 219.448 26.1633L221.419 30.2417H227.237L224.652 24.8757C223.651 23.0255 222.746 22.1004 221.228 21.6048C222.488 21.1753 223.36 20.5291 224.232 18.8442L226.558 14.1196H221.002L219.192 17.9191C218.643 19.0754 218.191 19.4573 217.06 19.4573H216.123V14.1196H210.761V30.2417H216.123V24.1488Z" fill="#13AB7B"/>
<path d="M242.999 30.2417V20.7265C242.999 16.3323 240.124 14.0196 235.924 14.0196C232.306 14.0196 229.536 15.1401 228.404 16.5066L230.921 19.2397C231.826 18.579 233.211 18.0834 235.149 18.0834C236.247 18.0834 237.669 18.4468 237.669 20.0657V20.3631C236.926 20.2639 236.506 20.2309 235.504 20.2309C231.595 20.2309 228.236 22.1802 228.236 26.0127C228.236 29.7791 230.982 30.7703 232.985 30.7703C235.052 30.7703 236.28 30.2747 237.669 28.788V30.2417H242.999ZM237.669 24.4268C237.502 26.5579 236.115 27.1153 234.985 27.1153C233.789 27.1153 233.187 26.3761 233.187 25.1867C233.187 24.0965 234.374 23.2374 236.183 23.2374C236.894 23.2374 237.378 23.2705 237.669 23.3696V24.4268Z" fill="#13AB7B"/>
<path d="M0.885788 12.2908C0.885788 6.91503 0.885788 4.22715 2.55582 2.55712C4.22585 0.887085 6.91373 0.887085 12.2895 0.887085H26.3141C31.6898 0.887085 34.3777 0.887085 36.0477 2.55712C37.7178 4.22715 37.7178 6.91503 37.7178 12.2908V26.3154C37.7178 31.6911 37.7178 34.379 36.0477 36.049C34.3777 37.7191 31.6898 37.7191 26.3141 37.7191H12.2895C6.91373 37.7191 4.22585 37.7191 2.55582 36.049C0.885788 34.379 0.885788 31.6911 0.885788 26.3154V12.2908Z" fill="#13AB7B"/>
<path fill-rule="evenodd" clip-rule="evenodd" d="M12.223 2.70853e-07H26.3829C29.0134 -1.55983e-05 31.0782 -2.80644e-05 32.6899 0.216664C34.3409 0.438641 35.6488 0.902535 36.6761 1.92982C37.7034 2.9571 38.1673 4.26494 38.3892 5.91599C38.6059 7.52772 38.6059 9.59245 38.6059 12.2229V26.383C38.6059 29.0134 38.6059 31.0782 38.3892 32.6899C38.1673 34.3409 37.7034 35.6488 36.6761 36.6761C35.6488 37.7034 34.3409 38.1673 32.6899 38.3892C31.0782 38.6059 29.0135 38.6059 26.383 38.6059H12.2229C9.59245 38.6059 7.52772 38.6059 5.91599 38.3892C4.26495 38.1673 2.9571 37.7034 1.92982 36.6761C0.902536 35.6488 0.438641 34.3409 0.216664 32.6899C-2.80085e-05 31.0782 -1.55983e-05 29.0134 2.70853e-07 26.3829V12.223C-1.55983e-05 9.59247 -2.80644e-05 7.52773 0.216664 5.91599C0.438641 4.26495 0.902535 2.9571 1.92982 1.92982C2.9571 0.902536 4.26494 0.438641 5.91599 0.216664C7.52772 -2.80085e-05 9.59246 -1.55983e-05 12.223 2.70853e-07ZM6.15236 1.97475C4.69802 2.17028 3.82691 2.54141 3.18416 3.18416C2.54141 3.82691 2.17028 4.69802 1.97475 6.15236C1.77579 7.63222 1.77391 9.57771 1.77391 12.2907V26.3152C1.77391 29.0282 1.77579 30.9737 1.97475 32.4535C2.17028 33.9079 2.54141 34.779 3.18416 35.4217C3.82691 36.0645 4.69802 36.4356 6.15236 36.6311C7.63222 36.8301 9.57771 36.832 12.2907 36.832H26.3152C29.0282 36.832 30.9737 36.8301 32.4535 36.6311C33.9079 36.4356 34.779 36.0645 35.4217 35.4217C36.0645 34.779 36.4356 33.9079 36.6311 32.4535C36.8301 30.9737 36.832 29.0282 36.832 26.3152V12.2907C36.832 9.5777 36.8301 7.63221 36.6311 6.15236C36.4356 4.69802 36.0645 3.82691 35.4217 3.18416C34.779 2.54141 33.9079 2.17028 32.4535 1.97475C30.9737 1.77579 29.0282 1.77391 26.3152 1.77391H12.2907C9.5777 1.77391 7.63221 1.77579 6.15236 1.97475Z" fill="#F2FFFB"/>
<path fill-rule="evenodd" clip-rule="evenodd" d="M19.568 30.287C12.1064 30.287 5.58386 25.3941 5.72884 20.1749C5.54373 16.3579 7.67664 12.3253 12.4766 10.1806C14.2702 9.37638 17.3276 8.70617 20.2956 8.67425C20.9495 8.65479 21.3732 8.57181 21.9494 8.45894C22.3182 8.38672 22.7494 8.30226 23.3434 8.21438C24.3232 8.06941 25.663 7.92444 26.8317 8.3934C28.2001 9.08425 29.5317 10.0991 29.5317 10.6019C29.5317 11.1047 28.635 11.9838 28.0551 12.0563C27.0522 12.1816 25.773 11.9808 24.1927 11.7327C22.9727 11.5412 21.5732 11.3215 19.9829 11.2019C13.2617 11.1062 8.3302 15.6385 8.48339 20.03C8.63658 25.6406 15.6553 28.0762 19.9829 28.0762C32.0401 28.1464 31.6541 17.4018 28.8271 16.8883C27.9031 16.7205 27.1702 18.3212 26.3625 20.0853C25.4258 22.131 24.3886 24.3964 22.8361 24.3793C21.3786 24.3642 20.2307 21.9379 19.2738 19.9154C18.6047 18.5012 18.0291 17.2844 17.5063 17.2274C16.5762 17.1262 15.8654 19.3219 15.2429 21.2449C14.8235 22.5403 14.4443 23.7119 14.065 23.9744C13.1951 24.8443 10.9158 22.9596 11.2379 22.2347C11.5529 21.5261 11.8457 21.795 12.164 22.0874C12.4318 22.3333 12.7177 22.5959 13.0501 22.3072C13.1742 22.198 13.3512 21.6769 13.5944 20.9607C14.2898 18.9132 15.5268 15.271 17.6169 15.1008C19.121 14.9848 20.319 17.6959 21.2715 19.8516C21.8914 21.2545 22.4074 22.4221 22.8361 22.4221C23.3286 22.4125 23.8183 21.332 24.4159 20.0133C25.4137 17.8117 26.7123 14.9463 28.8271 15.2936C34.2453 16.1832 34.6699 30.2934 19.568 30.287ZM26.5239 9.55806C26.5239 9.8049 26.1454 9.81504 25.3659 9.78011C24.7812 9.76264 24.4127 9.58796 24.5041 9.28736C24.5956 8.98676 25.1096 8.95488 25.6677 9.08593C25.936 9.14895 26.5239 9.31123 26.5239 9.55806Z" fill="#F2FFFB"/>
</svg>
