<svg width="30" height="30" viewBox="0 0 30 30" fill="none" xmlns="http://www.w3.org/2000/svg">
<path fill-rule="evenodd" clip-rule="evenodd" d="M1.76262 28.2365C2.16941 28.6433 2.82896 28.6433 3.23576 28.2365L28.2358 3.23653C28.6426 2.82973 28.6426 2.17018 28.2358 1.76339C27.829 1.35659 27.1694 1.35659 26.7626 1.76339L1.76262 26.7634C1.35582 27.1702 1.35582 27.8297 1.76262 28.2365Z" fill="white"/>
<path fill-rule="evenodd" clip-rule="evenodd" d="M27.4992 22.2916C28.0745 22.2916 28.5409 21.8253 28.5409 21.25V2.49996C28.5409 1.92466 28.0745 1.45829 27.4992 1.45829H8.74919C8.17389 1.45829 7.70752 1.92466 7.70752 2.49996C7.70752 3.07525 8.17389 3.54162 8.74919 3.54162H26.4575V21.25C26.4575 21.8253 26.9239 22.2916 27.4992 22.2916Z" fill="white"/>
</svg>
