<svg width="30" height="30" viewBox="0 0 30 30" fill="none" xmlns="http://www.w3.org/2000/svg">
<path fill-rule="evenodd" clip-rule="evenodd" d="M1.76262 28.2367C2.16941 28.6434 2.82896 28.6434 3.23576 28.2367L28.2358 3.23665C28.6426 2.82985 28.6426 2.17031 28.2358 1.76351C27.829 1.35671 27.1694 1.35671 26.7626 1.76351L1.76262 26.7635C1.35582 27.1703 1.35582 27.8299 1.76262 28.2367Z" fill="#12317F"/>
<path fill-rule="evenodd" clip-rule="evenodd" d="M27.4992 22.2917C28.0745 22.2917 28.5409 21.8254 28.5409 21.2501V2.50008C28.5409 1.92478 28.0745 1.45841 27.4992 1.45841H8.74919C8.17389 1.45841 7.70752 1.92478 7.70752 2.50008C7.70752 3.07538 8.17389 3.54175 8.74919 3.54175H26.4575V21.2501C26.4575 21.8254 26.9239 22.2917 27.4992 22.2917Z" fill="#12317F"/>
</svg>
