<svg width="183" height="66" viewBox="0 0 183 66" fill="none" xmlns="http://www.w3.org/2000/svg">
<path d="M43 38.25C43 50.4688 35.7812 57.75 23.5625 57.75C10.6562 57.75 2.53125 48.7188 2.53125 34.25C2.53125 20.0312 10.625 11.1562 23.4688 11.1562C33.5 11.1562 41.0938 17.0938 42.6562 26.0938H35.4688C33.7812 20.5 29.375 17.2812 23.5 17.2812C14.875 17.2812 9.6875 23.5938 9.6875 34.1875C9.6875 44.9688 15.0312 51.625 23.625 51.625C30.9375 51.625 36 46.9375 36.0938 40.0938V39.3125H24.4375V33.6562H43V38.25ZM62.7812 28.9688C58.0625 28.9688 54.75 32.5625 54.4062 37.5312H70.8438C70.6875 32.5 67.5 28.9688 62.7812 28.9688ZM70.8125 47.3438H77.2188C76.2812 53.3438 70.5938 57.625 63.0625 57.625C53.4062 57.625 47.5625 51.0938 47.5625 40.7188C47.5625 30.4062 53.5 23.5312 62.7812 23.5312C71.9062 23.5312 77.5938 29.9688 77.5938 39.9375V42.25H54.375V42.6562C54.375 48.375 57.8125 52.1562 63.2188 52.1562C67.0625 52.1562 69.9062 50.2188 70.8125 47.3438ZM82.8438 57V24.125H89.2812V29.625H89.4375C91.2188 25.875 94.7188 23.5625 99.7812 23.5625C107.031 23.5625 111.188 28.1875 111.188 35.7188V57H104.406V37.0312C104.406 32.0938 102.094 29.375 97.4062 29.375C92.6562 29.375 89.5938 32.75 89.5938 37.8438V57H82.8438ZM129.219 52.2188C133.938 52.2188 137.625 48.9688 137.625 44.6875V42.0938L129.531 42.5938C125.5 42.875 123.219 44.6562 123.219 47.4688C123.219 50.3438 125.594 52.2188 129.219 52.2188ZM127.344 57.5625C120.906 57.5625 116.406 53.5625 116.406 47.6562C116.406 41.9062 120.812 38.375 128.625 37.9375L137.625 37.4062V34.875C137.625 31.2188 135.156 29.0312 131.031 29.0312C127.125 29.0312 124.688 30.9062 124.094 33.8438H117.719C118.094 27.9062 123.156 23.5312 131.281 23.5312C139.25 23.5312 144.344 27.75 144.344 34.3438V57H137.875V51.5938H137.719C135.812 55.25 131.656 57.5625 127.344 57.5625Z" fill="white"/>
<path d="M165.938 42.1562V56.25H159.75V42.1562H146.625V36.0625H159.75V22.25H165.938V36.0625H179.062V42.1562H165.938Z" fill="#FF0000"/>
<path d="M105.836 11.9141H103.422C103.164 10.6016 102.18 9.55859 100.527 9.55859C98.5703 9.55859 97.2812 11.1875 97.2812 13.8359C97.2812 16.543 98.582 18.1133 100.551 18.1133C102.109 18.1133 103.129 17.2578 103.422 15.8281H105.859C105.59 18.4531 103.492 20.2344 100.527 20.2344C97 20.2344 94.7031 17.8203 94.7031 13.8359C94.7031 9.92188 97 7.44922 100.504 7.44922C103.68 7.44922 105.613 9.48828 105.836 11.9141ZM107.746 20V3.08984H110.277V20H107.746ZM112.961 20V7.67188H115.492V20H112.961ZM114.227 5.86719C113.418 5.86719 112.762 5.22266 112.762 4.42578C112.762 3.61719 113.418 2.97266 114.227 2.97266C115.047 2.97266 115.703 3.61719 115.703 4.42578C115.703 5.22266 115.047 5.86719 114.227 5.86719ZM118.082 20V7.67188H120.496V9.73438H120.555C121.223 8.32812 122.535 7.46094 124.434 7.46094C127.152 7.46094 128.711 9.19531 128.711 12.0195V20H126.168V12.5117C126.168 10.6602 125.301 9.64062 123.543 9.64062C121.762 9.64062 120.613 10.9062 120.613 12.8164V20H118.082ZM131.242 20V7.67188H133.773V20H131.242ZM132.508 5.86719C131.699 5.86719 131.043 5.22266 131.043 4.42578C131.043 3.61719 131.699 2.97266 132.508 2.97266C133.328 2.97266 133.984 3.61719 133.984 4.42578C133.984 5.22266 133.328 5.86719 132.508 5.86719ZM146.945 11.9141H144.531C144.273 10.6016 143.289 9.55859 141.637 9.55859C139.68 9.55859 138.391 11.1875 138.391 13.8359C138.391 16.543 139.691 18.1133 141.66 18.1133C143.219 18.1133 144.238 17.2578 144.531 15.8281H146.969C146.699 18.4531 144.602 20.2344 141.637 20.2344C138.109 20.2344 135.812 17.8203 135.812 13.8359C135.812 9.92188 138.109 7.44922 141.613 7.44922C144.789 7.44922 146.723 9.48828 146.945 11.9141Z" fill="white"/>
</svg>
