<svg width="35" height="36" viewBox="0 0 35 36" fill="none" xmlns="http://www.w3.org/2000/svg">
<path d="M22.7418 10.4277C19.2033 6.88922 13.4662 6.88922 9.92773 10.4277C6.38922 13.9662 6.38922 19.7033 9.92773 23.2418C13.4662 26.7803 19.2033 26.7803 22.7418 23.2418C26.2803 19.7033 26.2803 13.9662 22.7418 10.4277ZM7.86533 8.36533C12.5429 3.68779 20.1267 3.68779 24.8042 8.36533C29.1327 12.6938 29.4557 19.511 25.7733 24.2109L31.7902 30.2278C32.3597 30.7973 32.3597 31.7206 31.7901 32.2902C31.2206 32.8597 30.2973 32.8597 29.7278 32.2902L23.7109 26.2733C19.011 29.9557 12.1938 29.6327 7.86533 25.3042C3.18779 20.6267 3.18779 13.0429 7.86533 8.36533Z" fill="white"/>
</svg>
